<svg width="86" height="105" viewBox="0 0 86 105" fill="none" xmlns="http://www.w3.org/2000/svg">
<path d="M57.2989 0H86V86.0313H47.2041L85.8593 19.6696H66.0562L27.401 86.0313H0V63.9582H19.8031L57.2989 0Z" fill="#4AC1E0"/>
<path d="M37.4958 0L0 63.9582V0H37.4958Z" fill="#4AC1E0"/>
<path d="M0 105H2.43465V100.227H7.53905V98.2247H2.43465V95.171H8.10719V93.1523H0V105Z" fill="#FDFDFD"/>
<path d="M11.9189 99.9601H17.44V97.9575H11.9189V95.171H17.9903V93.1523H9.48242V105H18.1061V102.98H11.9189V99.9601Z" fill="#FDFDFD"/>
<path d="M27.0917 98.7592C28.1265 98.2746 28.6768 97.341 28.6768 96.3558V96.1723C28.6768 94.1358 27.1095 93.1523 24.7408 93.1523H19.6025V105H25.1077C27.4764 105 29.1773 103.732 29.1773 101.679V101.512C29.1773 100.243 28.4097 99.1922 27.0917 98.7592ZM21.9873 95.1389H24.4897C25.658 95.1389 26.2083 95.5398 26.2083 96.4573V96.6248C26.2083 97.5584 25.7239 98.027 24.5075 98.027H21.9891V95.1407L21.9873 95.1389ZM26.691 101.596C26.691 102.479 26.0231 103.014 24.8565 103.014H21.9873V99.9939H24.8726C26.0908 99.9939 26.691 100.495 26.691 101.412V101.596Z" fill="#FDFDFD"/>
<path d="M40.0033 97.0738V96.8742C40.0033 94.4547 38.1849 93.1523 35.7164 93.1523H30.5283V105H32.9469V100.796H34.9648L37.6506 105H40.4201L37.4672 100.544C39.0024 100.06 40.0033 98.8929 40.0033 97.0738ZM35.4671 98.7592H32.9487V95.1888H35.4671C36.6354 95.1888 37.4689 95.6894 37.4689 96.8742V97.0738C37.4689 98.2426 36.6354 98.7592 35.4671 98.7592Z" fill="#FDFDFD"/>
<path d="M45.1348 93.1523L40.6484 105H43.1508L44.052 102.463H48.8233L49.7245 105H52.3105L47.8242 93.1523H45.1384H45.1348ZM44.7679 100.461L46.4367 95.7393L48.1216 100.461H44.7697H44.7679Z" fill="#FDFDFD"/>
<path d="M60.8691 98.7592C61.9038 98.2746 62.4542 97.341 62.4542 96.3558V96.1723C62.4542 94.1358 60.8869 93.1523 58.5181 93.1523H53.3799V105H58.885C61.2538 105 62.9546 103.732 62.9546 101.679V101.512C62.9546 100.243 62.187 99.1922 60.8691 98.7592ZM55.7647 95.1389H58.267C59.4353 95.1389 59.9857 95.5398 59.9857 96.4573V96.6248C59.9857 97.5584 59.5012 98.027 58.2848 98.027H55.7664V95.1407L55.7647 95.1389ZM60.4683 101.596C60.4683 102.479 59.8005 103.014 58.6339 103.014H55.7647V99.9939H58.6499C59.8681 99.9939 60.4683 100.495 60.4683 101.412V101.596Z" fill="#FDFDFD"/>
<path d="M67.6085 93.1523L63.1221 105H65.6244L66.5256 102.463H71.2969L72.1981 105H74.7842L70.2978 93.1523H67.612H67.6085ZM67.2416 100.461L68.9104 95.7393L70.5952 100.461H67.2433H67.2416Z" fill="#FDFDFD"/>
<path d="M83.6562 93.1523V97.562L85.9912 101.546V93.1523H83.6562Z" fill="#FDFDFD"/>
<path d="M78.731 93.1523H75.8457V105H78.1966V100.332L75.8617 96.3219H78.1966L83.2512 105H85.9868V101.546H83.6519L78.731 93.1523Z" fill="#FDFDFD"/>
</svg>
